<svg xmlns="http://www.w3.org/2000/svg" width="640" height="480" viewBox="0 0 640 480" role="img" aria-label="Good barcode">
  <rect width="640" height="480" fill="#f3f4f6"/>
  <rect x="140" y="140" width="360" height="160" fill="#fff" stroke="#111" stroke-width="2"/>
  <g fill="#111">
    <rect x="160" y="160" width="8" height="100"/>
    <rect x="176" y="160" width="4" height="100"/>
    <rect x="188" y="160" width="12" height="100"/>
    <rect x="208" y="160" width="4" height="100"/>
    <rect x="220" y="160" width="10" height="100"/>
    <rect x="240" y="160" width="6" height="100"/>
    <rect x="256" y="160" width="14" height="100"/>
    <rect x="280" y="160" width="4" height="100"/>
    <rect x="294" y="160" width="10" height="100"/>
    <rect x="314" y="160" width="6" height="100"/>
    <rect x="330" y="160" width="12" height="100"/>
    <rect x="352" y="160" width="4" height="100"/>
    <rect x="366" y="160" width="10" height="100"/>
    <rect x="386" y="160" width="8" height="100"/>
    <rect x="404" y="160" width="14" height="100"/>
    <rect x="428" y="160" width="4" height="100"/>
    <rect x="442" y="160" width="10" height="100"/>
  </g>
  <text x="320" y="340" text-anchor="middle" font-family="monospace" font-size="20" fill="#111">012345678905</text>
  <text x="320" y="430" text-anchor="middle" font-family="system-ui,sans-serif" font-size="16" fill="#065f46">Flat Ę close Ę readable</text>
</svg>
